HIERARCHY
ROOT _rootJoint
{
	OFFSET 0.000000 0.250564 0.338481
	CHANNELS 6 Xposition Yposition Zposition Zrotation Yrotation Xrotation
	JOINT Wolf_01
	{
		OFFSET 0.000000 0.000000 0.000000
		CHANNELS 6 Xposition Yposition Zposition Zrotation Yrotation Xrotation
		JOINT Becken_05
		{
			OFFSET -0.000000 0.056263 0.054369
			CHANNELS 6 Xposition Yposition Zposition Zrotation Yrotation Xrotation
			JOINT Bauch_032
			{
				OFFSET 0.000000 -0.098990 0.017646
				CHANNELS 6 Xposition Yposition Zposition Zrotation Yrotation Xrotation
				JOINT Bauch_001_04
				{
					OFFSET 0.000000 -0.108125 0.003743
					CHANNELS 6 Xposition Yposition Zposition Zrotation Yrotation Xrotation
					JOINT Brust_029
					{
						OFFSET -0.000000 -0.106676 0.008101
						CHANNELS 6 Xposition Yposition Zposition Zrotation Yrotation Xrotation
						JOINT Hals_013
						{
							OFFSET 0.000000 -0.138945 -0.014717
							CHANNELS 6 Xposition Yposition Zposition Zrotation Yrotation Xrotation
							JOINT Kopf_002_014
							{
								OFFSET -0.000000 0.396473 -0.069142
								CHANNELS 6 Xposition Yposition Zposition Zrotation Yrotation Xrotation
								JOINT Kopf_03
								{
									OFFSET 0.000000 -0.449910 0.113305
									CHANNELS 6 Xposition Yposition Zposition Zrotation Yrotation Xrotation
									JOINT Unterkiefer_012
									{
										OFFSET -0.000407 -0.073113 -0.019017
										CHANNELS 6 Xposition Yposition Zposition Zrotation Yrotation Xrotation
										JOINT Hals_fett_022
										{
											OFFSET 0.000407 -0.009753 -0.030819
											CHANNELS 6 Xposition Yposition Zposition Zrotation Yrotation Xrotation
											End Site
											{
												OFFSET -1.000000 0.000000 -0.000000
											}
										}
										JOINT Maulunten_011
										{
											OFFSET 0.000407 -0.014613 0.001280
											CHANNELS 6 Xposition Yposition Zposition Zrotation Yrotation Xrotation
											End Site
											{
												OFFSET -1.000000 -0.000000 0.000000
											}
										}
									}
									JOINT Mauloben_021
									{
										OFFSET -0.000000 -0.098921 -0.010064
										CHANNELS 6 Xposition Yposition Zposition Zrotation Yrotation Xrotation
										End Site
										{
											OFFSET -1.000000 -0.000000 -0.000000
										}
									}
									JOINT MundW_L_02
									{
										OFFSET 0.036228 -0.075578 -0.014907
										CHANNELS 6 Xposition Yposition Zposition Zrotation Yrotation Xrotation
										End Site
										{
											OFFSET 0.907926 -0.397469 0.132996
										}
									}
									JOINT MundW_R_030
									{
										OFFSET -0.036228 -0.075578 -0.014907
										CHANNELS 6 Xposition Yposition Zposition Zrotation Yrotation Xrotation
										End Site
										{
											OFFSET 0.907916 0.397495 -0.132985
										}
									}
									JOINT Augen_con_031
									{
										OFFSET -0.000000 0.449910 -0.113305
										CHANNELS 6 Xposition Yposition Zposition Zrotation Yrotation Xrotation
										JOINT IK_Aug_R_09
										{
											OFFSET 0.000000 0.000000 0.000000
											CHANNELS 6 Xposition Yposition Zposition Zrotation Yrotation Xrotation
											End Site
											{
												OFFSET 0.000000 0.000000 1.000000
											}
										}
										JOINT IK_Aug_L_010
										{
											OFFSET 0.000000 0.000000 0.000000
											CHANNELS 6 Xposition Yposition Zposition Zrotation Yrotation Xrotation
											End Site
											{
												OFFSET 0.000000 0.000000 1.000000
											}
										}
									}
									JOINT Aug_R_06
									{
										OFFSET -0.022119 -0.095533 0.040980
										CHANNELS 6 Xposition Yposition Zposition Zrotation Yrotation Xrotation
										End Site
										{
											OFFSET 0.956596 -0.290486 -0.023291
										}
									}
									JOINT aug_L_07
									{
										OFFSET 0.022119 -0.095533 0.040980
										CHANNELS 6 Xposition Yposition Zposition Zrotation Yrotation Xrotation
										End Site
										{
											OFFSET 0.956596 0.290486 0.023291
										}
									}
									JOINT Ohr_L_08
									{
										OFFSET 0.036475 -0.039728 0.085373
										CHANNELS 6 Xposition Yposition Zposition Zrotation Yrotation Xrotation
										End Site
										{
											OFFSET -0.965714 0.154276 0.208794
										}
									}
									JOINT Ohr_R_015
									{
										OFFSET -0.036475 -0.039728 0.085373
										CHANNELS 6 Xposition Yposition Zposition Zrotation Yrotation Xrotation
										End Site
										{
											OFFSET -0.965714 -0.154276 -0.208794
										}
									}
									JOINT Braun_O_L_00
									{
										OFFSET 0.036984 -0.083108 0.061567
										CHANNELS 6 Xposition Yposition Zposition Zrotation Yrotation Xrotation
										End Site
										{
											OFFSET 0.218981 -0.650585 0.727176
										}
									}
									JOINT Braun_O_R_017
									{
										OFFSET -0.036984 -0.083108 0.061567
										CHANNELS 6 Xposition Yposition Zposition Zrotation Yrotation Xrotation
										End Site
										{
											OFFSET 0.218982 0.650585 -0.727176
										}
									}
									JOINT aug_lied_O_L_016
									{
										OFFSET 0.032663 -0.093881 0.047342
										CHANNELS 6 Xposition Yposition Zposition Zrotation Yrotation Xrotation
										End Site
										{
											OFFSET 0.471983 -0.815141 0.335824
										}
									}
									JOINT aug_lied_O_R_020
									{
										OFFSET -0.032663 -0.093881 0.047342
										CHANNELS 6 Xposition Yposition Zposition Zrotation Yrotation Xrotation
										End Site
										{
											OFFSET 0.471983 0.815140 -0.335824
										}
									}
									JOINT aug_lied_U_L_018
									{
										OFFSET 0.033082 -0.093096 0.044255
										CHANNELS 6 Xposition Yposition Zposition Zrotation Yrotation Xrotation
										End Site
										{
											OFFSET 0.322085 -0.759960 0.564554
										}
									}
									JOINT aug_lied_U_R_019
									{
										OFFSET -0.033082 -0.093096 0.044255
										CHANNELS 6 Xposition Yposition Zposition Zrotation Yrotation Xrotation
										End Site
										{
											OFFSET 0.322085 0.759960 -0.564554
										}
									}
								}
							}
						}
						JOINT Bauch_003_023
						{
							OFFSET 0.000000 0.257528 -0.083859
							CHANNELS 6 Xposition Yposition Zposition Zrotation Yrotation Xrotation
							JOINT Schalterplatte_L_025
							{
								OFFSET 0.038208 -0.315354 0.105362
								CHANNELS 6 Xposition Yposition Zposition Zrotation Yrotation Xrotation
								JOINT Oberarm_L_024
								{
									OFFSET 0.028512 -0.094851 -0.101566
									CHANNELS 6 Xposition Yposition Zposition Zrotation Yrotation Xrotation
									JOINT Unterarm_L_027
									{
										OFFSET 0.003153 0.098010 -0.177542
										CHANNELS 6 Xposition Yposition Zposition Zrotation Yrotation Xrotation
										JOINT Vorderpfote_L_026
										{
											OFFSET 0.002604 -0.029854 -0.167942
											CHANNELS 6 Xposition Yposition Zposition Zrotation Yrotation Xrotation
											End Site
											{
												OFFSET -1.000000 -0.000000 -0.000015
											}
										}
									}
								}
							}
							JOINT Schalterplatte_R_033
							{
								OFFSET -0.038208 -0.315354 0.105362
								CHANNELS 6 Xposition Yposition Zposition Zrotation Yrotation Xrotation
								JOINT Oberarm_R_028
								{
									OFFSET -0.028512 -0.094851 -0.101566
									CHANNELS 6 Xposition Yposition Zposition Zrotation Yrotation Xrotation
									JOINT Unterarm_R_034
									{
										OFFSET -0.003153 0.098011 -0.177542
										CHANNELS 6 Xposition Yposition Zposition Zrotation Yrotation Xrotation
										JOINT Vorderpfote_R_035
										{
											OFFSET -0.002604 -0.029854 -0.167941
											CHANNELS 6 Xposition Yposition Zposition Zrotation Yrotation Xrotation
											End Site
											{
												OFFSET -0.999945 0.000022 0.010440
											}
										}
									}
								}
							}
						}
					}
				}
			}
			JOINT Schwanz_037
			{
				OFFSET 0.000000 0.005057 -0.011797
				CHANNELS 6 Xposition Yposition Zposition Zrotation Yrotation Xrotation
				JOINT Schwanz_001_036
				{
					OFFSET -0.000000 0.085232 -0.032006
					CHANNELS 6 Xposition Yposition Zposition Zrotation Yrotation Xrotation
					JOINT Schwanz_002_039
					{
						OFFSET 0.000000 0.076544 -0.017668
						CHANNELS 6 Xposition Yposition Zposition Zrotation Yrotation Xrotation
						JOINT Schwanz_003_038
						{
							OFFSET -0.000000 0.083495 0.001194
							CHANNELS 6 Xposition Yposition Zposition Zrotation Yrotation Xrotation
							End Site
							{
								OFFSET -1.000000 0.000000 0.000000
							}
						}
					}
				}
			}
			JOINT Oberschenkel_L_041
			{
				OFFSET 0.058370 -0.051243 -0.021344
				CHANNELS 6 Xposition Yposition Zposition Zrotation Yrotation Xrotation
				JOINT Unterschenkel_L_040
				{
					OFFSET 0.014913 -0.013499 -0.167440
					CHANNELS 6 Xposition Yposition Zposition Zrotation Yrotation Xrotation
					JOINT Pfote1_L_042
					{
						OFFSET -0.002217 0.065343 -0.099538
						CHANNELS 6 Xposition Yposition Zposition Zrotation Yrotation Xrotation
						JOINT Pfote2_L_043
						{
							OFFSET 0.007647 0.000092 -0.098466
							CHANNELS 6 Xposition Yposition Zposition Zrotation Yrotation Xrotation
							End Site
							{
								OFFSET -1.000000 -0.000000 0.000009
							}
						}
					}
				}
			}
			JOINT Oberschenkel_R_044
			{
				OFFSET -0.058370 -0.051243 -0.021344
				CHANNELS 6 Xposition Yposition Zposition Zrotation Yrotation Xrotation
				JOINT Unterschenkel_R_045
				{
					OFFSET -0.014913 -0.013499 -0.167441
					CHANNELS 6 Xposition Yposition Zposition Zrotation Yrotation Xrotation
					JOINT Pfote1_R_046
					{
						OFFSET 0.002217 0.065343 -0.099538
						CHANNELS 6 Xposition Yposition Zposition Zrotation Yrotation Xrotation
						JOINT Pfote2_R_047
						{
							OFFSET -0.007647 0.000092 -0.098466
							CHANNELS 6 Xposition Yposition Zposition Zrotation Yrotation Xrotation
							End Site
							{
								OFFSET -1.000000 -0.000000 0.000006
							}
						}
					}
				}
			}
		}
	}
}
MOTION
Frames: 4
Frame Time: 0.041667
0.000000 0.250564 0.338481 -0.000000 -0.000000 0.000000 0.000000 0.000000 -0.000000 0.000000 0.000000 -90.000009 0.000000 -0.053410 -0.042088 0.000003 -0.000002 76.814473 -0.000000 -0.106725 0.028688 0.000000 0.000001 18.650388 0.000000 -0.064031 0.000864 -0.000000 0.000002 -1.232557 -0.000000 -0.106728 0.006141 0.000004 0.000003 1.929941 -0.000000 -0.174773 -0.036054 0.000004 0.000002 18.948862 -0.000003 -0.093878 0.150353 89.983460 81.474355 -90.009128 0.104138 -0.000208 0.000000 0.000000 89.999982 154.544696 -0.000407 -0.073113 -0.019017 0.000006 0.000014 0.000011 0.000407 -0.009753 -0.030819 0.000021 0.000003 -0.000002 0.000407 -0.014613 0.001280 -0.000008 -0.000006 -0.000000 0.000000 -0.098921 -0.010065 0.000006 -0.000003 0.000848 0.036228 -0.075578 -0.014907 -0.000018 0.000008 -0.000006 -0.036228 -0.075578 -0.014907 0.000001 -0.000030 0.000036 -0.000000 -0.177608 0.038189 89.999996 -4.910726 -90.000003 0.034613 -0.000000 0.029432 5.121070 -165.749416 -1.683207 0.034613 -0.000000 -0.029432 5.121073 165.749416 1.683297 -0.022119 -0.095533 0.040981 4.645047 -1.296930 -0.397497 0.022119 -0.095533 0.040981 -4.643140 1.296997 -0.397511 0.036475 -0.039728 0.085373 0.000044 0.000041 -0.000125 -0.036475 -0.039728 0.085373 -0.000045 -0.000058 -0.000096 0.036984 -0.083108 0.061567 0.000003 -0.000026 -0.000001 -0.036984 -0.083107 0.061567 0.000009 0.000020 -0.000002 0.032663 -0.093880 0.047342 0.000003 0.000009 0.000021 -0.032663 -0.093880 0.047342 0.000007 0.000026 0.000007 0.033082 -0.093096 0.044255 -0.000019 -0.000014 -0.000012 -0.033082 -0.093096 0.044254 0.000004 0.000038 -0.000005 0.000000 -0.099638 0.100361 90.000016 62.066646 -90.000009 0.089257 0.000000 -0.038208 -177.935403 87.831117 -55.636658 0.028512 -0.094851 -0.101566 -0.785201 -0.215532 46.853387 0.003153 0.098010 -0.177542 -3.613043 13.824560 -23.264705 0.002604 -0.029854 -0.167942 4.805411 7.015653 114.433153 0.089257 0.000000 0.038208 -17.151848 82.911229 126.508969 -0.028512 -0.094851 -0.101566 -8.518711 -7.876823 34.459278 -0.003153 0.098011 -0.177542 0.114859 -1.246660 -3.556987 -0.002604 -0.029854 -0.167941 -11.244336 5.038300 122.421141 0.000000 0.015240 -0.024522 1.400909 0.750348 -32.225157 0.000000 0.085232 -0.032006 -0.787189 -0.591812 10.325049 0.000000 0.076544 -0.017668 -0.907920 0.543885 -7.644124 0.000000 0.083495 0.001194 -4.293694 -2.109820 -19.896580 0.058344 -0.039970 -0.014360 -2.419793 -0.288251 -27.160807 0.014913 -0.013499 -0.167440 4.909851 7.224055 17.425110 -0.002217 0.065343 -0.099538 -1.042172 -0.762478 -14.582235 0.007647 0.000092 -0.098466 -3.421678 -7.897827 85.850137 -0.058370 -0.048090 -0.022793 0.020084 -0.002359 -0.222870 -0.014913 -0.013499 -0.167441 2.708874 -8.398012 -24.983348 0.002217 0.065343 -0.099538 -0.171434 0.243718 2.272321 -0.007647 0.000092 -0.098466 2.540587 10.305762 43.241217 
0.000000 0.250564 0.338481 -0.000000 -0.000000 0.000000 0.000000 0.000000 -0.000000 0.000000 0.000000 -90.000009 0.000000 -0.053054 -0.031833 0.000004 -0.000002 82.035838 -0.000000 -0.106851 0.024414 0.000000 0.000001 10.916912 0.000000 -0.062506 -0.013536 0.000000 -0.000002 -5.621999 -0.000000 -0.107674 -0.000449 0.000002 -0.000001 -0.518311 -0.000000 -0.171525 -0.035207 0.000004 0.000006 21.029394 -0.000003 -0.093878 0.150353 89.983460 81.474355 -90.009128 0.104076 0.000364 0.000000 0.000000 89.999982 157.326550 -0.000407 -0.073113 -0.019017 0.000006 0.000014 0.000009 0.000407 -0.009753 -0.030819 0.000021 0.000003 0.000002 0.000407 -0.014613 0.001280 -0.000008 -0.000005 0.000007 0.000000 -0.098921 -0.010065 0.000006 -0.000003 0.000845 0.036228 -0.075578 -0.014907 -0.000018 0.000008 -0.000007 -0.036228 -0.075578 -0.014907 -0.000003 -0.000031 0.000034 -0.000000 -0.177608 0.038189 89.999996 -4.910728 -90.000003 0.034613 0.000000 0.029432 5.121071 -165.749416 -1.683207 0.034613 -0.000000 -0.029432 5.121075 165.749416 1.683297 -0.022119 -0.095533 0.040981 4.645046 -1.296930 -0.397496 0.022119 -0.095533 0.040981 -4.643140 1.296997 -0.397511 0.036475 -0.039728 0.085373 0.000044 0.000042 -0.000125 -0.036475 -0.039728 0.085373 -0.000045 -0.000059 -0.000096 0.036984 -0.083108 0.061567 0.000006 -0.000028 -0.000006 -0.036984 -0.083107 0.061567 0.000009 0.000024 0.000000 0.032663 -0.093880 0.047342 0.000005 0.000007 0.000023 -0.032663 -0.093880 0.047342 0.000007 0.000025 0.000009 0.033082 -0.093096 0.044255 -0.000018 -0.000014 -0.000016 -0.033082 -0.093096 0.044254 0.000001 0.000041 -0.000008 0.000000 -0.099638 0.100361 90.000016 62.066646 -90.000009 0.089257 0.000000 -0.038208 -155.171981 83.055380 -41.034305 0.028512 -0.094851 -0.101566 -0.895152 0.794708 58.290781 0.003153 0.098010 -0.177542 -5.494742 15.589389 -33.388611 0.002604 -0.029854 -0.167942 6.387121 9.434292 115.718813 0.089257 0.000000 0.038208 -8.815400 77.991922 119.874287 -0.028512 -0.094851 -0.101566 -9.497757 -8.123985 50.421239 -0.003153 0.098011 -0.177542 0.383508 -2.568658 -10.691096 -0.002604 -0.029854 -0.167941 -12.453104 3.870125 127.335708 0.000000 0.014328 -0.022193 1.492456 0.545897 -24.146916 0.000000 0.085232 -0.032006 -0.674736 -0.438446 0.089846 0.000000 0.076544 -0.017668 -0.907292 0.544479 -15.378374 0.000000 0.083495 0.001194 -4.293694 -2.109820 -19.896582 0.058344 -0.030559 -0.018687 -2.219535 -0.218481 -24.819963 0.014913 -0.013499 -0.167440 3.770468 7.431014 -0.455226 -0.002217 0.065343 -0.099538 -0.880206 -0.615357 -12.118607 0.007647 0.000092 -0.098466 -4.784357 -7.574573 80.827031 -0.058370 -0.038679 -0.027120 -0.244243 0.034985 2.725505 -0.014913 -0.013499 -0.167441 3.123476 -8.119991 -24.143788 0.002217 0.065343 -0.099538 0.497921 -0.608342 -6.005537 -0.007647 0.000092 -0.098466 2.535632 11.047273 35.416525 
0.000000 0.250564 0.338481 -0.000000 -0.000000 0.000000 0.000000 0.000000 -0.000000 0.000000 0.000000 -90.000009 0.000000 -0.054061 -0.021331 0.000006 -0.000005 88.893375 -0.000000 -0.106976 0.020140 0.000000 0.000000 1.444922 0.000000 -0.060458 -0.027954 0.000002 -0.000000 -10.011442 -0.000000 -0.109241 -0.010818 -0.000000 -0.000004 -4.387554 -0.000000 -0.166413 -0.033873 0.000003 -0.000002 24.313925 -0.000003 -0.093878 0.150353 89.983460 81.474355 -90.009128 0.104013 0.001362 0.000000 0.000000 89.999982 161.728033 -0.000407 -0.073113 -0.019017 0.000006 0.000014 0.000008 0.000407 -0.009753 -0.030819 0.000021 0.000003 0.000002 0.000407 -0.014613 0.001280 -0.000008 -0.000005 0.000004 0.000000 -0.098921 -0.010065 0.000006 -0.000003 0.000848 0.036228 -0.075578 -0.014907 -0.000014 0.000007 -0.000005 -0.036228 -0.075578 -0.014907 0.000001 -0.000031 0.000034 -0.000000 -0.177608 0.038189 89.999996 -4.910727 -90.000003 0.034613 -0.000000 0.029432 5.121070 -165.749416 -1.683207 0.034613 -0.000000 -0.029432 5.121074 165.749416 1.683297 -0.022119 -0.095533 0.040981 4.645043 -1.296930 -0.397496 0.022119 -0.095533 0.040981 -4.643138 1.296998 -0.397509 0.036475 -0.039728 0.085373 0.000044 0.000041 -0.000128 -0.036475 -0.039728 0.085373 -0.000045 -0.000060 -0.000099 0.036984 -0.083108 0.061567 0.000004 -0.000027 -0.000004 -0.036984 -0.083107 0.061567 0.000006 0.000023 0.000000 0.032663 -0.093880 0.047342 0.000008 0.000006 0.000017 -0.032663 -0.093880 0.047342 0.000013 0.000026 0.000008 0.033082 -0.093096 0.044255 -0.000013 -0.000015 -0.000012 -0.033082 -0.093096 0.044254 -0.000001 0.000039 -0.000009 0.000000 -0.099638 0.100361 90.000016 62.066646 -90.000009 0.089257 0.000000 -0.038208 -146.359698 80.600467 -35.566171 0.028512 -0.094851 -0.101566 -0.845251 1.882805 61.388326 0.003153 0.098010 -0.177542 -7.237227 17.394509 -40.804581 0.002604 -0.029854 -0.167942 8.145566 12.386878 114.751864 0.089257 0.000000 0.038208 -3.130497 75.090089 117.160038 -0.028512 -0.094851 -0.101566 -10.272574 -9.248864 63.783858 -0.003153 0.098011 -0.177542 1.037865 -5.004180 -17.714420 -0.002604 -0.029854 -0.167941 -13.779678 1.594219 124.754116 0.000000 0.013841 -0.020584 1.560849 0.298455 -14.886589 0.000000 0.085232 -0.032006 -0.594106 -0.274632 -9.731490 0.000000 0.076544 -0.017668 -0.906777 0.545149 -22.815458 -0.000000 0.083495 0.001194 -4.293694 -2.109820 -19.896582 0.058344 -0.015743 -0.025498 -2.058298 -0.168885 -22.957417 0.014913 -0.013499 -0.167440 2.111502 6.959925 -22.792425 -0.002217 0.065343 -0.099538 0.599261 0.281593 7.467784 0.007647 0.000092 -0.098466 -4.709878 -8.967762 56.682142 -0.058370 -0.023863 -0.033931 -0.402816 0.064104 4.505078 -0.014913 -0.013499 -0.167441 -4.384696 -7.907021 -5.343976 0.002217 0.065343 -0.099538 3.593004 -2.646337 -34.672281 -0.007647 0.000092 -0.098466 8.985329 8.830702 43.807942 
0.000000 0.250564 0.338481 -0.000000 -0.000000 0.000000 0.000000 0.000000 -0.000000 0.000000 0.000000 -90.000009 0.000000 -0.057208 -0.016824 0.000004 -0.000002 94.768602 -0.000000 -0.106906 0.018501 -0.000000 0.000001 -5.607301 -0.000000 -0.058629 -0.033550 0.000002 0.000001 -11.686974 -0.000000 -0.110980 -0.023462 0.000006 -0.000004 -9.114819 -0.000000 -0.160185 -0.032248 0.000003 -0.000002 28.323490 -0.000003 -0.093878 0.150353 89.983460 81.474355 -90.009128 0.103950 0.002360 0.000000 0.000000 89.999989 167.110236 -0.000407 -0.073113 -0.019017 0.000006 0.000014 0.000003 0.000407 -0.009753 -0.030819 0.000021 0.000003 -0.000000 0.000407 -0.014613 0.001280 -0.000008 -0.000005 0.000002 -0.000000 -0.098921 -0.010065 0.000006 -0.000003 0.000846 0.036228 -0.075578 -0.014907 -0.000020 0.000007 -0.000009 -0.036228 -0.075578 -0.014907 -0.000001 -0.000031 0.000033 -0.000000 -0.177608 0.038189 89.999996 -4.910725 -90.000003 0.034613 0.000000 0.029432 5.121071 -165.749416 -1.683207 0.034613 -0.000000 -0.029432 5.121073 165.749416 1.683297 -0.022119 -0.095533 0.040981 4.645045 -1.296930 -0.397498 0.022119 -0.095533 0.040981 -4.643141 1.296997 -0.397514 0.036475 -0.039728 0.085373 0.000044 0.000041 -0.000126 -0.036475 -0.039728 0.085373 -0.000045 -0.000059 -0.000099 0.036984 -0.083108 0.061567 0.000009 -0.000028 -0.000004 -0.036984 -0.083107 0.061567 0.000009 0.000025 -0.000002 0.032663 -0.093880 0.047342 0.000006 0.000007 0.000018 -0.032663 -0.093880 0.047342 0.000009 0.000026 0.000007 0.033082 -0.093096 0.044255 -0.000018 -0.000015 -0.000012 -0.033082 -0.093096 0.044254 0.000000 0.000037 -0.000008 0.000000 -0.099638 0.100361 90.000016 62.066646 -90.000009 0.089257 0.000000 -0.038208 -140.287059 80.573133 -27.676668 0.028512 -0.094851 -0.101566 -1.057335 2.132201 55.710452 0.003153 0.098010 -0.177542 -8.172431 16.890184 -46.091865 0.002604 -0.029854 -0.167942 8.653118 14.999165 106.357281 0.089257 0.000000 0.038208 2.017310 72.519957 115.417657 -0.028512 -0.094851 -0.101566 -10.268027 -10.595736 73.909429 -0.003153 0.098011 -0.177542 2.648474 -7.220243 -31.329863 -0.002604 -0.029854 -0.167941 -15.362878 -2.421022 114.831790 0.000000 0.012658 -0.015263 1.588552 0.043191 -5.623193 0.000000 0.085232 -0.032006 -0.546937 -0.119829 -18.435598 0.000000 0.076544 -0.017668 -0.906392 0.545788 -29.456342 0.000000 0.083495 0.001194 -4.293694 -2.109820 -19.896582 0.058344 0.002305 -0.033795 -1.812056 -0.103993 -20.146290 0.014913 -0.013499 -0.167440 1.534046 7.554881 -21.758368 -0.002217 0.065343 -0.099538 -0.112192 -0.063813 -1.453422 0.007647 0.000092 -0.098466 -4.517491 -9.183493 42.907125 -0.058370 -0.005815 -0.042229 1.464753 0.033909 -16.232614 -0.014913 -0.013499 -0.167441 -11.102860 -0.458240 34.049285 0.002217 0.065343 -0.099538 0.051177 -0.068757 -0.654815 -0.007647 0.000092 -0.098466 7.867628 8.443777 6.254265 
